<svg t="1640944904415" class="icon" viewBox="0 0 1024 1024" version="1.1" xmlns="http://www.w3.org/2000/svg" p-id="4779" width="200" height="200"><path d="M170.666667 853.333333V56.888889H56.888889v853.333333a56.888889 56.888889 0 0 0 56.888889 56.888889h853.333333v-113.777778H170.666667z" fill="" p-id="4780"></path><path d="M312.888889 739.555556h56.888889a28.444444 28.444444 0 0 0 28.444444-28.444445v-284.444444a28.444444 28.444444 0 0 0-28.444444-28.444445h-56.888889a28.444444 28.444444 0 0 0-28.444445 28.444445v284.444444a28.444444 28.444444 0 0 0 28.444445 28.444445zM483.555556 739.555556h56.888888a28.444444 28.444444 0 0 0 28.444445-28.444445v-512a28.444444 28.444444 0 0 0-28.444445-28.444444h-56.888888a28.444444 28.444444 0 0 0-28.444445 28.444444v512a28.444444 28.444444 0 0 0 28.444445 28.444445zM654.222222 739.555556h56.888889a28.444444 28.444444 0 0 0 28.444445-28.444445v-170.666667a28.444444 28.444444 0 0 0-28.444445-28.444444h-56.888889a28.444444 28.444444 0 0 0-28.444444 28.444444v170.666667a28.444444 28.444444 0 0 0 28.444444 28.444445zM824.888889 739.555556h56.888889a28.444444 28.444444 0 0 0 28.444444-28.444445v-398.222222a28.444444 28.444444 0 0 0-28.444444-28.444445h-56.888889a28.444444 28.444444 0 0 0-28.444445 28.444445v398.222222a28.444444 28.444444 0 0 0 28.444445 28.444445z" fill="" p-id="4781"></path></svg>