<svg t="1641094279300" class="icon" viewBox="0 0 1024 1024" version="1.1" xmlns="http://www.w3.org/2000/svg" p-id="2468" width="200" height="200"><path d="M836.864 940.544H194.816a30.72 30.72 0 0 1-30.72-30.72V327.424a30.72 30.72 0 0 1 61.44 0v551.68h580.608V327.424a30.72 30.72 0 1 1 61.44 0v582.4a30.72 30.72 0 0 1-30.72 30.72zM920.064 268.544a30.72 30.72 0 0 1-30.72-30.72 20.48 20.48 0 0 0-20.48-20.48h-224.768A55.552 55.552 0 0 1 588.8 167.68h-145.92a55.552 55.552 0 0 1-55.296 49.664H162.816a20.48 20.48 0 0 0-20.48 20.48 30.72 30.72 0 0 1-61.44 0 81.92 81.92 0 0 1 81.92-81.92h219.136a55.552 55.552 0 0 1 55.296-49.664h157.44a55.552 55.552 0 0 1 55.296 49.664h219.136a81.92 81.92 0 0 1 81.92 81.92 30.72 30.72 0 0 1-30.976 30.72z" fill="" p-id="2469"></path><path d="M619.264 807.424a25.6 25.6 0 0 1-25.6-25.6V327.424a25.6 25.6 0 1 1 51.2 0v454.4a25.6 25.6 0 0 1-25.6 25.6zM412.416 807.424a25.6 25.6 0 0 1-25.6-25.6V327.424a25.6 25.6 0 1 1 51.2 0v454.4a25.6 25.6 0 0 1-25.6 25.6z" fill="" p-id="2470"></path></svg>