<svg t="1641002608475" class="icon" viewBox="0 0 1024 1024" version="1.1" xmlns="http://www.w3.org/2000/svg" p-id="10142" width="200" height="200"><path d="M512 1024C229.2224 1024 0 794.7776 0 512 0 229.2224 229.2224 0 512 0c282.7776 0 512 229.2224 512 512 0 282.7776-229.2224 512-512 512z m228.864-671.658667V307.2H286.242133v45.141333h454.587734zM750.933333 750.933333v-45.653333h-134.997333c18.1248-26.7776 35.5328-58.7776 52.258133-96.0512l-35.4304-23.620267h65.160534V405.333333H330.734933v180.2752h62.0544l-35.4304 23.0912c18.7904 27.136 36.642133 59.306667 53.538134 96.580267H273.066667V750.933333h477.866666z m-102.144-210.722133H379.5968v-88.4224h269.192533v88.4224z m-246.954666 45.397333h222.378666c-15.1552 39.3728-35.584 79.2576-61.269333 119.671467h-100.864a1014.5792 1014.5792 0 0 0-60.245333-119.671467z" fill="#228A31" p-id="10143"></path></svg>