<svg t="1641002010606" class="icon" viewBox="0 0 1024 1024" version="1.1" xmlns="http://www.w3.org/2000/svg" p-id="2968" width="200" height="200"><path d="M810.278323 154.315369 213.721677 154.315369C131.305006 154.315369 64.383234 221.067497 64.383234 303.409565l0 44.651305 0 59.613764 0 312.914778C64.383234 803.026523 131.243689 869.684631 213.721677 869.684631L810.278323 869.684631C892.694994 869.684631 959.616766 802.932503 959.616766 720.590435L959.616766 407.675657l0-59.613764 0-44.651305C959.616766 220.973477 892.756311 154.315369 810.278323 154.315369zM899.934531 720.590435c0 49.38705-40.170028 89.480431-89.655186 89.480431L213.721677 810.070866c-49.560782 0-89.655186-40.012647-89.655186-89.480431L124.066491 407.675657l775.869062 0L899.935553 720.590435zM899.934531 348.06087 124.065469 348.06087l0-44.651305c0-49.38705 40.170028-89.480431 89.655186-89.480431L810.278323 213.929134c49.560782 0 89.655186 40.012647 89.655186 89.480431L899.933509 348.06087z" p-id="2969"></path><path d="M310.572455 258.639713l-74.602794 0c-12.360559 0-22.380838 10.009038-22.380838 22.355289s10.020279 22.355289 22.380838 22.355289l74.602794 0c12.360559 0 22.380838-10.009038 22.380838-22.355289S322.933014 258.639713 310.572455 258.639713z" p-id="2970"></path><path d="M539.444631 676.820056c-5.123066 3.048495-14.271617 4.573253-27.444631 4.573253-11.123992 0-22.761006-2.222754-34.91002-6.669285s-23.638866-10.226715-34.470579-17.340551L399.58483 702.354651c16.100918 12.196024 33.884998 21.151425 53.353261 26.868248 9.060663 2.660152 18.041613 4.70202 26.94285 6.124583l0 27.308711 64.237094 0 0-27.704208c5.270228-0.965749 10.299273-2.176766 15.087138-3.633054 14.198036-4.319808 26.127329-10.09897 35.788902-17.340551 9.660551-7.241581 16.9798-15.68907 21.955705-25.343489 4.976926-9.654419 7.465389-19.69105 7.465389-30.107848 0-17.27719-5.196647-31.37814-15.588918-42.303872-10.392271-10.925733-25.249469-19.436583-44.570571-25.534595l-32.934579-11.814834c-14.345198-4.573253-25.395609-8.384128-33.153277-11.433645-7.757669-3.048495-11.637014-7.495026-11.637014-13.338571 0-11.179178 10.831713-16.769277 32.495138-16.769277 11.417293 0 21.663425 1.524758 30.738395 4.573253 9.07497 3.048495 18.735521 7.495026 28.981653 13.338571l37.764343-41.160303c-14.051896-11.433645-29.567234-19.817772-46.547034-25.153405-8.61509-2.707162-17.23018-4.727569-25.845269-6.061222l0-26.800798-64.237094 0 0 29.434379c-1.836455 0.471122-3.645317 0.978012-5.426587 1.521693-13.320176 4.065341-24.737469 9.591058-34.25188 16.578172-9.514411 6.987114-16.90622 15.117796-22.175425 24.391026s-7.903808 19.246499-7.903808 29.917764c0 8.893062 1.610603 17.022723 4.830786 24.391026s7.537948 13.910866 12.954315 19.627689c5.415345 5.716822 11.783154 10.671265 19.101381 14.863329s15.076918 7.558387 23.273006 10.099992l35.569182 12.957381c6.733669 2.032671 12.661014 3.874236 17.78408 5.525717 5.123066 1.651481 9.44083 3.366323 12.954315 5.144527s6.148088 3.684152 7.903808 5.716822c1.756743 2.032671 2.634603 4.573253 2.634603 7.621749C547.129741 669.451752 544.567697 673.771561 539.444631 676.820056z" p-id="2971"></path></svg>