<svg t="1640944397707" class="icon" viewBox="0 0 1024 1024" version="1.1" xmlns="http://www.w3.org/2000/svg" p-id="3983" width="200" height="200"><path d="M841.704141 99.863429l-659.418514 0c-45.51666 0-82.417081 36.910655-82.417081 82.437547l0 659.408281c0 45.51666 36.900422 82.427314 82.417081 82.427314l659.418514 0c45.526893 0 82.427314-36.910655 82.427314-82.427314l0-659.408281C924.131455 136.774083 887.231033 99.863429 841.704141 99.863429zM718.058053 429.572686l0 82.427314L553.213657 512l0 82.427314 164.844395 0 0 82.417081L553.213657 676.844395l0 123.646088-82.427314 0 0-123.646088-164.854629 0 0-82.417081 164.854629 0 0-82.427314-164.854629 0 0-82.427314 178.024579 0-219.243353-206.052936 123.646088 0 123.635855 123.625622 123.646088-123.625622 123.635855 0-210.801077 206.052936L718.058053 429.572686z" p-id="3984"></path></svg>