<svg t="1641001943062" class="icon" viewBox="0 0 1024 1024" version="1.1" xmlns="http://www.w3.org/2000/svg" p-id="1901" width="200" height="200"><path d="M106.666667 112v800a5.333333 5.333333 0 0 0 5.333333 5.333333h800a5.333333 5.333333 0 0 0 5.333333-5.333333V112a5.333333 5.333333 0 0 0-5.333333-5.333333H112a5.333333 5.333333 0 0 0-5.333333 5.333333z m730.666666 730.666667H186.666667a5.333333 5.333333 0 0 1-5.333334-5.333334V186.666667a5.333333 5.333333 0 0 1 5.333334-5.333334h650.666666a5.333333 5.333333 0 0 1 5.333334 5.333334v650.666666a5.333333 5.333333 0 0 1-5.333334 5.333334z" p-id="1902"></path><path d="M340.164833 312.100127m18.177359-18.177358l16.442589-16.44259q18.177358-18.177358 36.354717 0l72.030611 72.030611q18.177358 18.177358 0 36.354716l-16.44259 16.44259q-18.177358 18.177358-36.354717 0l-72.03061-72.030611q-18.177358-18.177358 0-36.354716Z" p-id="1903"></path><path d="M480 753.973333h64a5.333333 5.333333 0 0 0 5.333333-5.333333v-145.12a5.333333 5.333333 0 0 1 5.333334-5.333333h128a5.333333 5.333333 0 0 0 5.333333-5.333334v-64a5.333333 5.333333 0 0 0-5.333333-5.333333h-128a5.333333 5.333333 0 0 1-5.333334-5.333333v-21.333334a5.333333 5.333333 0 0 1 5.333334-5.333333h128a5.333333 5.333333 0 0 0 5.333333-5.333333v-64a5.333333 5.333333 0 0 0-5.333333-5.333334h-81.706667a5.333333 5.333333 0 0 1-3.733333-9.013333l78.613333-78.666667a5.333333 5.333333 0 0 0 0-7.466666l-45.333333-45.28a5.333333 5.333333 0 0 0-7.466667 0l-138.666667 138.666666a5.333333 5.333333 0 0 1-3.786666 1.546667H341.333333a5.333333 5.333333 0 0 0-5.333333 5.333333v64a5.333333 5.333333 0 0 0 5.333333 5.333334h128a5.333333 5.333333 0 0 1 5.333334 5.333333v21.333333a5.333333 5.333333 0 0 1-5.333334 5.333334H341.333333a5.333333 5.333333 0 0 0-5.333333 5.333333v64a5.333333 5.333333 0 0 0 5.333333 5.333333h128a5.333333 5.333333 0 0 1 5.333334 5.333334v145.173333a5.333333 5.333333 0 0 0 5.333333 5.493333z" p-id="1904"></path></svg>