<svg t="1641001965050" class="icon" viewBox="0 0 1024 1024" version="1.1" xmlns="http://www.w3.org/2000/svg" p-id="2035" width="200" height="200"><path d="M512 896h-6.4C502.4 896 128 822.4 128 512V256c0-16 9.6-25.6 22.4-32l352-96h16l352 96c16 6.4 25.6 16 25.6 32v256c0 310.4-374.4 384-377.6 384H512zM192 281.6V512c0 240 275.2 310.4 320 320 44.8-9.6 320-76.8 320-320V281.6L512 192 192 281.6z" p-id="2036"></path><path d="M736 448H288c-19.2 0-32 12.8-32 32s12.8 32 32 32h192v96h-160c-19.2 0-32 12.8-32 32s12.8 32 32 32h160v64c0 19.2 12.8 32 32 32s32-12.8 32-32v-64h160c19.2 0 32-12.8 32-32s-12.8-32-32-32h-160v-96h192c19.2 0 32-12.8 32-32s-12.8-32-32-32zM512 416c-9.6 0-16-3.2-22.4-9.6l-96-96c-12.8-12.8-12.8-32 0-44.8s32-12.8 44.8 0l73.6 73.6 73.6-73.6c12.8-12.8 32-12.8 44.8 0s12.8 32 0 44.8l-96 96c-6.4 6.4-12.8 9.6-22.4 9.6z" p-id="2037"></path></svg>