<svg t="1641001984416" class="icon" viewBox="0 0 1024 1024" version="1.1" xmlns="http://www.w3.org/2000/svg" p-id="2168" width="200" height="200"><path d="M512 938.667C276.352 938.667 85.333 747.648 85.333 512S276.352 85.333 512 85.333 938.667 276.352 938.667 512 747.648 938.667 512 938.667z m0-85.334a341.333 341.333 0 1 0 0-682.666 341.333 341.333 0 0 0 0 682.666z m79.701-384h5.632a42.667 42.667 0 0 1 0 85.334h-42.666v42.666h42.666a42.667 42.667 0 0 1 0 85.334h-42.666v42.666a42.667 42.667 0 0 1-85.334 0v-42.666h-42.666a42.667 42.667 0 0 1 0-85.334h42.666v-42.666h-42.666a42.667 42.667 0 0 1 0-85.334h5.632l-65.11-130.261a42.667 42.667 0 0 1 76.288-38.144L512 437.888l68.523-136.96a42.667 42.667 0 0 1 76.288 38.144L591.7 469.333z" p-id="2169"></path></svg>