<svg t="1642248382971" class="icon" viewBox="0 0 1024 1024" version="1.1" xmlns="http://www.w3.org/2000/svg" p-id="1766" width="200" height="200"><path d="M658.069333 256a64 64 0 0 1 64 64l-0.021333 33.664 49.28-38.4A64 64 0 0 1 874.666667 365.781333v338.368a64 64 0 0 1-103.338667 50.474667l-49.28-38.4v26.496a64 64 0 0 1-64 64H213.333333a64 64 0 0 1-64-64V320a64 64 0 0 1 64-64h444.736z" p-id="1767"></path><path d="M376.106667 638.933333l132.224-88.981333a21.333333 21.333333 0 0 0-0.170667-35.498667l-132.202667-87.274666a21.333333 21.333333 0 0 0-33.088 17.792v176.277333a21.333333 21.333333 0 0 0 33.237334 17.706667z" p-id="1768"></path></svg>