<?xml version="1.0" standalone="no"?><!DOCTYPE svg PUBLIC "-//W3C//DTD SVG 1.1//EN" "http://www.w3.org/Graphics/SVG/1.1/DTD/svg11.dtd"><svg t="1612749713384" class="icon" viewBox="0 0 1024 1024" version="1.1" xmlns="http://www.w3.org/2000/svg" p-id="11609" xmlns:xlink="http://www.w3.org/1999/xlink" width="128" height="128"><defs><style type="text/css"></style></defs><path d="M0 409.088C0 237.568 153.088 97.28 345.6 84.992c9.216-0.512 17.92-1.024 27.136-1.024 206.336 0 372.736 145.408 372.736 324.608 0 27.136-4.096 53.248-10.752 78.336-39.936 141.312-186.88 246.784-361.984 246.784-59.904 0-116.224-12.288-165.376-33.792l-83.968 57.344s-22.528 15.872-19.968-14.336l23.552-89.6C49.664 593.92 0 506.88 0 409.088z" fill="#75B543" p-id="11610"></path><path d="M223.744 332.288c-24.576 0-44.544-19.968-44.544-45.056s19.968-45.056 44.544-45.056 44.544 19.968 44.544 45.056-19.968 45.056-44.544 45.056M503.296 242.688c24.576 0 44.544 19.968 44.544 45.056 0 24.576-19.968 45.056-44.544 45.056s-44.544-19.968-44.544-45.056 19.968-45.056 44.544-45.056" fill="#156C37" p-id="11611"></path><path d="M1024 641.536c0-145.408-129.536-264.192-292.864-274.432-7.68-0.512-15.36-1.024-23.04-1.024-174.592 0-315.904 123.392-315.904 274.944 0 23.04 3.584 45.056 9.216 66.56 33.792 119.808 158.208 208.896 306.688 208.896 50.688 0 98.304-10.24 140.288-28.672l71.168 48.64s18.944 13.312 16.896-12.288l-19.968-75.776c65.536-50.176 107.52-123.904 107.52-206.848z" fill="#F2F0F0" p-id="11612"></path><path d="M820.224 578.048c-24.576 0-44.544-19.968-44.544-45.056 0-24.576 19.968-45.056 44.544-45.056s44.544 19.968 44.544 45.056c-0.512 24.576-19.968 45.056-44.544 45.056M591.872 578.048c-24.576 0-44.544-19.968-44.544-45.056 0-24.576 19.968-45.056 44.544-45.056s44.544 19.968 44.544 45.056c0 24.576-19.968 45.056-44.544 45.056" fill="#7B7F7E" p-id="11613"></path></svg>